<?xml version="1.0" encoding="utf-8" standalone="no"?>
<!DOCTYPE svg PUBLIC "-//W3C//DTD SVG 1.1//EN"
  "http://www.w3.org/Graphics/SVG/1.1/DTD/svg11.dtd">
<svg xmlns:xlink="http://www.w3.org/1999/xlink" width="460.8pt" height="345.6pt" viewBox="0 0 460.8 345.6" xmlns="http://www.w3.org/2000/svg" version="1.1">
 <metadata>
  <rdf:RDF xmlns:dc="http://purl.org/dc/elements/1.1/" xmlns:cc="http://creativecommons.org/ns#" xmlns:rdf="http://www.w3.org/1999/02/22-rdf-syntax-ns#">
   <cc:Work>
    <dc:type rdf:resource="http://purl.org/dc/dcmitype/StillImage"/>
    <dc:date>2022-09-11T00:33:26.823703</dc:date>
    <dc:format>image/svg+xml</dc:format>
    <dc:creator>
     <cc:Agent>
      <dc:title>Matplotlib v3.5.2, https://matplotlib.org/</dc:title>
     </cc:Agent>
    </dc:creator>
   </cc:Work>
  </rdf:RDF>
 </metadata>
 <defs>
  <style type="text/css">*{stroke-linejoin: round; stroke-linecap: butt}</style>
 </defs>
 <g id="figure_1">
  <g id="patch_1">
   <path d="M 0 345.6 
L 460.8 345.6 
L 460.8 0 
L 0 0 
z
" style="fill: #ffffff"/>
  </g>
  <g id="axes_1">
   <g id="patch_2">
    <path d="M 57.6 307.584 
L 414.72 307.584 
L 414.72 41.472 
L 57.6 41.472 
z
" style="fill: #ffffff"/>
   </g>
   <g id="matplotlib.axis_1">
    <g id="xtick_1">
     <g id="line2d_1">
      <defs>
       <path id="m75940a28ad" d="M 0 0 
L 0 3.5 
" style="stroke: #000000; stroke-width: 0.8"/>
      </defs>
      <g>
       <use xlink:href="#m75940a28ad" x="73.832727" y="307.584" style="stroke: #000000; stroke-width: 0.8"/>
      </g>
     </g>
     <g id="text_1">
      <!-- 0 -->
      <g transform="translate(70.651477 322.182437)scale(0.1 -0.1)">
       <defs>
        <path id="DejaVuSans-30" d="M 2034 4250 
Q 1547 4250 1301 3770 
Q 1056 3291 1056 2328 
Q 1056 1369 1301 889 
Q 1547 409 2034 409 
Q 2525 409 2770 889 
Q 3016 1369 3016 2328 
Q 3016 3291 2770 3770 
Q 2525 4250 2034 4250 
z
M 2034 4750 
Q 2819 4750 3233 4129 
Q 3647 3509 3647 2328 
Q 3647 1150 3233 529 
Q 2819 -91 2034 -91 
Q 1250 -91 836 529 
Q 422 1150 422 2328 
Q 422 3509 836 4129 
Q 1250 4750 2034 4750 
z
" transform="scale(0.015625)"/>
       </defs>
       <use xlink:href="#DejaVuSans-30"/>
      </g>
     </g>
    </g>
    <g id="xtick_2">
     <g id="line2d_2">
      <g>
       <use xlink:href="#m75940a28ad" x="127.672619" y="307.584" style="stroke: #000000; stroke-width: 0.8"/>
      </g>
     </g>
     <g id="text_2">
      <!-- 100 -->
      <g transform="translate(118.128869 322.182437)scale(0.1 -0.1)">
       <defs>
        <path id="DejaVuSans-31" d="M 794 531 
L 1825 531 
L 1825 4091 
L 703 3866 
L 703 4441 
L 1819 4666 
L 2450 4666 
L 2450 531 
L 3481 531 
L 3481 0 
L 794 0 
L 794 531 
z
" transform="scale(0.015625)"/>
       </defs>
       <use xlink:href="#DejaVuSans-31"/>
       <use xlink:href="#DejaVuSans-30" x="63.623047"/>
       <use xlink:href="#DejaVuSans-30" x="127.246094"/>
      </g>
     </g>
    </g>
    <g id="xtick_3">
     <g id="line2d_3">
      <g>
       <use xlink:href="#m75940a28ad" x="181.51251" y="307.584" style="stroke: #000000; stroke-width: 0.8"/>
      </g>
     </g>
     <g id="text_3">
      <!-- 200 -->
      <g transform="translate(171.96876 322.182437)scale(0.1 -0.1)">
       <defs>
        <path id="DejaVuSans-32" d="M 1228 531 
L 3431 531 
L 3431 0 
L 469 0 
L 469 531 
Q 828 903 1448 1529 
Q 2069 2156 2228 2338 
Q 2531 2678 2651 2914 
Q 2772 3150 2772 3378 
Q 2772 3750 2511 3984 
Q 2250 4219 1831 4219 
Q 1534 4219 1204 4116 
Q 875 4013 500 3803 
L 500 4441 
Q 881 4594 1212 4672 
Q 1544 4750 1819 4750 
Q 2544 4750 2975 4387 
Q 3406 4025 3406 3419 
Q 3406 3131 3298 2873 
Q 3191 2616 2906 2266 
Q 2828 2175 2409 1742 
Q 1991 1309 1228 531 
z
" transform="scale(0.015625)"/>
       </defs>
       <use xlink:href="#DejaVuSans-32"/>
       <use xlink:href="#DejaVuSans-30" x="63.623047"/>
       <use xlink:href="#DejaVuSans-30" x="127.246094"/>
      </g>
     </g>
    </g>
    <g id="xtick_4">
     <g id="line2d_4">
      <g>
       <use xlink:href="#m75940a28ad" x="235.352402" y="307.584" style="stroke: #000000; stroke-width: 0.8"/>
      </g>
     </g>
     <g id="text_4">
      <!-- 300 -->
      <g transform="translate(225.808652 322.182437)scale(0.1 -0.1)">
       <defs>
        <path id="DejaVuSans-33" d="M 2597 2516 
Q 3050 2419 3304 2112 
Q 3559 1806 3559 1356 
Q 3559 666 3084 287 
Q 2609 -91 1734 -91 
Q 1441 -91 1130 -33 
Q 819 25 488 141 
L 488 750 
Q 750 597 1062 519 
Q 1375 441 1716 441 
Q 2309 441 2620 675 
Q 2931 909 2931 1356 
Q 2931 1769 2642 2001 
Q 2353 2234 1838 2234 
L 1294 2234 
L 1294 2753 
L 1863 2753 
Q 2328 2753 2575 2939 
Q 2822 3125 2822 3475 
Q 2822 3834 2567 4026 
Q 2313 4219 1838 4219 
Q 1578 4219 1281 4162 
Q 984 4106 628 3988 
L 628 4550 
Q 988 4650 1302 4700 
Q 1616 4750 1894 4750 
Q 2613 4750 3031 4423 
Q 3450 4097 3450 3541 
Q 3450 3153 3228 2886 
Q 3006 2619 2597 2516 
z
" transform="scale(0.015625)"/>
       </defs>
       <use xlink:href="#DejaVuSans-33"/>
       <use xlink:href="#DejaVuSans-30" x="63.623047"/>
       <use xlink:href="#DejaVuSans-30" x="127.246094"/>
      </g>
     </g>
    </g>
    <g id="xtick_5">
     <g id="line2d_5">
      <g>
       <use xlink:href="#m75940a28ad" x="289.192293" y="307.584" style="stroke: #000000; stroke-width: 0.8"/>
      </g>
     </g>
     <g id="text_5">
      <!-- 400 -->
      <g transform="translate(279.648543 322.182437)scale(0.1 -0.1)">
       <defs>
        <path id="DejaVuSans-34" d="M 2419 4116 
L 825 1625 
L 2419 1625 
L 2419 4116 
z
M 2253 4666 
L 3047 4666 
L 3047 1625 
L 3713 1625 
L 3713 1100 
L 3047 1100 
L 3047 0 
L 2419 0 
L 2419 1100 
L 313 1100 
L 313 1709 
L 2253 4666 
z
" transform="scale(0.015625)"/>
       </defs>
       <use xlink:href="#DejaVuSans-34"/>
       <use xlink:href="#DejaVuSans-30" x="63.623047"/>
       <use xlink:href="#DejaVuSans-30" x="127.246094"/>
      </g>
     </g>
    </g>
    <g id="xtick_6">
     <g id="line2d_6">
      <g>
       <use xlink:href="#m75940a28ad" x="343.032185" y="307.584" style="stroke: #000000; stroke-width: 0.8"/>
      </g>
     </g>
     <g id="text_6">
      <!-- 500 -->
      <g transform="translate(333.488435 322.182437)scale(0.1 -0.1)">
       <defs>
        <path id="DejaVuSans-35" d="M 691 4666 
L 3169 4666 
L 3169 4134 
L 1269 4134 
L 1269 2991 
Q 1406 3038 1543 3061 
Q 1681 3084 1819 3084 
Q 2600 3084 3056 2656 
Q 3513 2228 3513 1497 
Q 3513 744 3044 326 
Q 2575 -91 1722 -91 
Q 1428 -91 1123 -41 
Q 819 9 494 109 
L 494 744 
Q 775 591 1075 516 
Q 1375 441 1709 441 
Q 2250 441 2565 725 
Q 2881 1009 2881 1497 
Q 2881 1984 2565 2268 
Q 2250 2553 1709 2553 
Q 1456 2553 1204 2497 
Q 953 2441 691 2322 
L 691 4666 
z
" transform="scale(0.015625)"/>
       </defs>
       <use xlink:href="#DejaVuSans-35"/>
       <use xlink:href="#DejaVuSans-30" x="63.623047"/>
       <use xlink:href="#DejaVuSans-30" x="127.246094"/>
      </g>
     </g>
    </g>
    <g id="xtick_7">
     <g id="line2d_7">
      <g>
       <use xlink:href="#m75940a28ad" x="396.872076" y="307.584" style="stroke: #000000; stroke-width: 0.8"/>
      </g>
     </g>
     <g id="text_7">
      <!-- 600 -->
      <g transform="translate(387.328326 322.182437)scale(0.1 -0.1)">
       <defs>
        <path id="DejaVuSans-36" d="M 2113 2584 
Q 1688 2584 1439 2293 
Q 1191 2003 1191 1497 
Q 1191 994 1439 701 
Q 1688 409 2113 409 
Q 2538 409 2786 701 
Q 3034 994 3034 1497 
Q 3034 2003 2786 2293 
Q 2538 2584 2113 2584 
z
M 3366 4563 
L 3366 3988 
Q 3128 4100 2886 4159 
Q 2644 4219 2406 4219 
Q 1781 4219 1451 3797 
Q 1122 3375 1075 2522 
Q 1259 2794 1537 2939 
Q 1816 3084 2150 3084 
Q 2853 3084 3261 2657 
Q 3669 2231 3669 1497 
Q 3669 778 3244 343 
Q 2819 -91 2113 -91 
Q 1303 -91 875 529 
Q 447 1150 447 2328 
Q 447 3434 972 4092 
Q 1497 4750 2381 4750 
Q 2619 4750 2861 4703 
Q 3103 4656 3366 4563 
z
" transform="scale(0.015625)"/>
       </defs>
       <use xlink:href="#DejaVuSans-36"/>
       <use xlink:href="#DejaVuSans-30" x="63.623047"/>
       <use xlink:href="#DejaVuSans-30" x="127.246094"/>
      </g>
     </g>
    </g>
   </g>
   <g id="matplotlib.axis_2">
    <g id="ytick_1">
     <g id="line2d_8">
      <defs>
       <path id="m3177dc8b04" d="M 0 0 
L -3.5 0 
" style="stroke: #000000; stroke-width: 0.8"/>
      </defs>
      <g>
       <use xlink:href="#m3177dc8b04" x="57.6" y="295.488" style="stroke: #000000; stroke-width: 0.8"/>
      </g>
     </g>
     <g id="text_8">
      <!-- 0.000 -->
      <g transform="translate(21.971875 299.287219)scale(0.1 -0.1)">
       <defs>
        <path id="DejaVuSans-2e" d="M 684 794 
L 1344 794 
L 1344 0 
L 684 0 
L 684 794 
z
" transform="scale(0.015625)"/>
       </defs>
       <use xlink:href="#DejaVuSans-30"/>
       <use xlink:href="#DejaVuSans-2e" x="63.623047"/>
       <use xlink:href="#DejaVuSans-30" x="95.410156"/>
       <use xlink:href="#DejaVuSans-30" x="159.033203"/>
       <use xlink:href="#DejaVuSans-30" x="222.65625"/>
      </g>
     </g>
    </g>
    <g id="ytick_2">
     <g id="line2d_9">
      <g>
       <use xlink:href="#m3177dc8b04" x="57.6" y="254.792927" style="stroke: #000000; stroke-width: 0.8"/>
      </g>
     </g>
     <g id="text_9">
      <!-- 0.002 -->
      <g transform="translate(21.971875 258.592146)scale(0.1 -0.1)">
       <use xlink:href="#DejaVuSans-30"/>
       <use xlink:href="#DejaVuSans-2e" x="63.623047"/>
       <use xlink:href="#DejaVuSans-30" x="95.410156"/>
       <use xlink:href="#DejaVuSans-30" x="159.033203"/>
       <use xlink:href="#DejaVuSans-32" x="222.65625"/>
      </g>
     </g>
    </g>
    <g id="ytick_3">
     <g id="line2d_10">
      <g>
       <use xlink:href="#m3177dc8b04" x="57.6" y="214.097854" style="stroke: #000000; stroke-width: 0.8"/>
      </g>
     </g>
     <g id="text_10">
      <!-- 0.004 -->
      <g transform="translate(21.971875 217.897073)scale(0.1 -0.1)">
       <use xlink:href="#DejaVuSans-30"/>
       <use xlink:href="#DejaVuSans-2e" x="63.623047"/>
       <use xlink:href="#DejaVuSans-30" x="95.410156"/>
       <use xlink:href="#DejaVuSans-30" x="159.033203"/>
       <use xlink:href="#DejaVuSans-34" x="222.65625"/>
      </g>
     </g>
    </g>
    <g id="ytick_4">
     <g id="line2d_11">
      <g>
       <use xlink:href="#m3177dc8b04" x="57.6" y="173.402781" style="stroke: #000000; stroke-width: 0.8"/>
      </g>
     </g>
     <g id="text_11">
      <!-- 0.006 -->
      <g transform="translate(21.971875 177.202)scale(0.1 -0.1)">
       <use xlink:href="#DejaVuSans-30"/>
       <use xlink:href="#DejaVuSans-2e" x="63.623047"/>
       <use xlink:href="#DejaVuSans-30" x="95.410156"/>
       <use xlink:href="#DejaVuSans-30" x="159.033203"/>
       <use xlink:href="#DejaVuSans-36" x="222.65625"/>
      </g>
     </g>
    </g>
    <g id="ytick_5">
     <g id="line2d_12">
      <g>
       <use xlink:href="#m3177dc8b04" x="57.6" y="132.707708" style="stroke: #000000; stroke-width: 0.8"/>
      </g>
     </g>
     <g id="text_12">
      <!-- 0.008 -->
      <g transform="translate(21.971875 136.506927)scale(0.1 -0.1)">
       <defs>
        <path id="DejaVuSans-38" d="M 2034 2216 
Q 1584 2216 1326 1975 
Q 1069 1734 1069 1313 
Q 1069 891 1326 650 
Q 1584 409 2034 409 
Q 2484 409 2743 651 
Q 3003 894 3003 1313 
Q 3003 1734 2745 1975 
Q 2488 2216 2034 2216 
z
M 1403 2484 
Q 997 2584 770 2862 
Q 544 3141 544 3541 
Q 544 4100 942 4425 
Q 1341 4750 2034 4750 
Q 2731 4750 3128 4425 
Q 3525 4100 3525 3541 
Q 3525 3141 3298 2862 
Q 3072 2584 2669 2484 
Q 3125 2378 3379 2068 
Q 3634 1759 3634 1313 
Q 3634 634 3220 271 
Q 2806 -91 2034 -91 
Q 1263 -91 848 271 
Q 434 634 434 1313 
Q 434 1759 690 2068 
Q 947 2378 1403 2484 
z
M 1172 3481 
Q 1172 3119 1398 2916 
Q 1625 2713 2034 2713 
Q 2441 2713 2670 2916 
Q 2900 3119 2900 3481 
Q 2900 3844 2670 4047 
Q 2441 4250 2034 4250 
Q 1625 4250 1398 4047 
Q 1172 3844 1172 3481 
z
" transform="scale(0.015625)"/>
       </defs>
       <use xlink:href="#DejaVuSans-30"/>
       <use xlink:href="#DejaVuSans-2e" x="63.623047"/>
       <use xlink:href="#DejaVuSans-30" x="95.410156"/>
       <use xlink:href="#DejaVuSans-30" x="159.033203"/>
       <use xlink:href="#DejaVuSans-38" x="222.65625"/>
      </g>
     </g>
    </g>
    <g id="ytick_6">
     <g id="line2d_13">
      <g>
       <use xlink:href="#m3177dc8b04" x="57.6" y="92.012635" style="stroke: #000000; stroke-width: 0.8"/>
      </g>
     </g>
     <g id="text_13">
      <!-- 0.010 -->
      <g transform="translate(21.971875 95.811854)scale(0.1 -0.1)">
       <use xlink:href="#DejaVuSans-30"/>
       <use xlink:href="#DejaVuSans-2e" x="63.623047"/>
       <use xlink:href="#DejaVuSans-30" x="95.410156"/>
       <use xlink:href="#DejaVuSans-31" x="159.033203"/>
       <use xlink:href="#DejaVuSans-30" x="222.65625"/>
      </g>
     </g>
    </g>
    <g id="ytick_7">
     <g id="line2d_14">
      <g>
       <use xlink:href="#m3177dc8b04" x="57.6" y="51.317562" style="stroke: #000000; stroke-width: 0.8"/>
      </g>
     </g>
     <g id="text_14">
      <!-- 0.012 -->
      <g transform="translate(21.971875 55.116781)scale(0.1 -0.1)">
       <use xlink:href="#DejaVuSans-30"/>
       <use xlink:href="#DejaVuSans-2e" x="63.623047"/>
       <use xlink:href="#DejaVuSans-30" x="95.410156"/>
       <use xlink:href="#DejaVuSans-31" x="159.033203"/>
       <use xlink:href="#DejaVuSans-32" x="222.65625"/>
      </g>
     </g>
    </g>
   </g>
   <g id="line2d_15">
    <path d="M 73.832727 295.488 
L 77.60152 295.390332 
L 79.216716 295.150231 
L 80.293514 294.812462 
L 81.370312 294.202036 
L 82.44711 293.001531 
L 83.523908 291.312686 
L 85.139104 288.020454 
L 87.2927 279.897718 
L 87.831099 277.224051 
L 88.369498 275.136394 
L 88.907897 272.352851 
L 89.984695 265.853848 
L 90.523094 261.365181 
L 91.599891 254.988263 
L 92.676689 246.133016 
L 93.215088 242.808228 
L 93.753487 237.078362 
L 94.291886 233.464639 
L 96.983881 210.353907 
L 98.060678 199.162762 
L 98.599077 195.764724 
L 99.675875 185.96535 
L 100.214274 181.224374 
L 100.752673 219.900972 
L 101.291072 188.069286 
L 101.829471 182.217334 
L 102.36787 180.015731 
L 103.444668 172.9999 
L 103.983066 167.831626 
L 105.059864 161.658183 
L 105.598263 158.007835 
L 106.136662 53.568 
L 106.675061 140.020613 
L 107.21346 136.565601 
L 107.751859 134.600029 
L 108.290258 131.987406 
L 108.828657 128.581228 
L 109.367056 126.106967 
L 109.905455 122.513593 
L 110.443853 121.825846 
L 110.982252 117.33311 
L 111.520651 77.93214 
L 112.05905 110.830037 
L 112.597449 109.454544 
L 113.135848 109.295833 
L 113.674247 105.759431 
L 114.212646 105.743153 
L 114.751045 103.814207 
L 115.289444 103.814207 
L 115.827843 101.543421 
L 116.366242 102.161987 
L 116.90464 85.489215 
L 117.443039 100.310361 
L 117.981438 98.491291 
L 118.519837 99.923758 
L 119.058236 99.150551 
L 119.596635 100.696964 
L 120.135034 99.74063 
L 120.673433 101.661437 
L 121.211832 101.860843 
L 121.750231 101.295182 
L 122.28863 97.762849 
L 122.827028 102.402088 
L 123.365427 104.558926 
L 123.903826 104.754263 
L 124.442225 105.787918 
L 124.980624 105.258882 
L 125.519023 108.026147 
L 126.057422 108.65692 
L 126.595821 111.184084 
L 127.13422 112.876999 
L 127.672619 112.29506 
L 128.211018 114.089712 
L 128.749417 117.141843 
L 129.287815 118.147011 
L 129.826214 120.124792 
L 130.364613 123.5269 
L 130.903012 123.286799 
L 131.441411 126.367416 
L 131.97981 127.836508 
L 132.518209 128.65041 
L 133.595007 133.753572 
L 134.133406 135.230803 
L 134.671805 137.627743 
L 135.210204 140.993225 
L 136.287001 143.658752 
L 136.8254 147.134112 
L 137.363799 147.667217 
L 137.902198 150.776321 
L 138.978996 153.482543 
L 139.517395 157.22242 
L 140.055794 158.772903 
L 140.594193 161.975605 
L 141.670991 166.419507 
L 142.209389 167.567108 
L 142.747788 169.398386 
L 143.286187 173.252209 
L 143.824586 174.721302 
L 144.362985 177.732737 
L 144.901384 178.571055 
L 145.978182 182.888803 
L 147.05498 186.1322 
L 147.593379 189.347111 
L 148.131777 190.958636 
L 148.670176 193.367784 
L 149.208575 193.860194 
L 149.746974 195.337426 
L 150.285373 199.565644 
L 150.823772 200.029567 
L 151.362171 201.966653 
L 151.90057 204.892629 
L 152.977368 207.981385 
L 153.515767 211.127114 
L 154.054166 211.468952 
L 154.592564 212.754917 
L 155.130963 215.37161 
L 155.669362 217.121498 
L 156.207761 217.414503 
L 157.284559 222.053741 
L 157.822958 223.164716 
L 158.361357 224.662295 
L 158.899756 226.60752 
L 159.976554 229.618955 
L 160.514953 231.210132 
L 161.053351 232.264135 
L 161.59175 233.611142 
L 162.130149 235.588922 
L 162.668548 236.508631 
L 163.206947 236.895234 
L 163.745346 239.914808 
L 164.283745 241.237398 
L 164.822144 241.103105 
L 165.360543 242.828576 
L 165.898942 243.605852 
L 166.437341 245.559215 
L 166.975739 246.389395 
L 168.052537 249.164798 
L 169.129335 250.434485 
L 170.206133 253.038969 
L 170.744532 254.076694 
L 171.282931 254.166223 
L 171.82133 255.505091 
L 172.359729 256.534676 
L 172.898128 258.190966 
L 173.436526 258.109576 
L 173.974925 259.940854 
L 174.513324 261.031482 
L 175.051723 261.759924 
L 175.590122 261.829105 
L 176.128521 263.52609 
L 176.66692 263.416213 
L 177.205319 264.657413 
L 177.743718 265.459106 
L 178.282117 267.058422 
L 178.820516 266.427648 
L 179.358915 267.811281 
L 179.897313 267.766516 
L 180.435712 269.174566 
L 181.51251 270.680284 
L 182.589308 272.072055 
L 183.127707 272.629578 
L 183.666106 272.434241 
L 184.204505 273.956237 
L 184.742904 273.382436 
L 185.819701 275.311383 
L 186.3581 276.019477 
L 186.896499 275.807863 
L 187.434898 276.255509 
L 187.973297 277.81413 
L 188.511696 277.875172 
L 189.050095 278.428625 
L 189.588494 278.709421 
L 190.126893 278.835576 
L 191.203691 280.174444 
L 191.74209 280.500005 
L 192.280488 280.516283 
L 192.818887 280.935442 
L 193.357286 281.830734 
L 193.895685 281.920263 
L 194.434084 282.453368 
L 194.972483 282.384187 
L 196.58768 283.950947 
L 197.126079 283.653873 
L 197.664478 284.414871 
L 198.202877 284.357898 
L 199.279674 285.013088 
L 199.818073 285.151451 
L 200.356472 285.428178 
L 200.894871 286.347887 
L 201.43327 286.315331 
L 201.971669 286.583918 
L 202.510068 287.072259 
L 203.048467 286.98273 
L 203.586866 287.47921 
L 204.125265 287.251317 
L 204.663664 287.922786 
L 205.202062 287.934994 
L 205.740461 287.694894 
L 206.27886 288.354154 
L 206.817259 288.757035 
L 207.894057 288.862842 
L 208.432456 289.163986 
L 208.970855 289.184333 
L 209.509254 289.54245 
L 210.047653 289.745925 
L 210.586052 289.579075 
L 211.12445 289.981957 
L 213.278046 290.576105 
L 213.816445 290.506923 
L 214.354844 290.702259 
L 214.893243 291.019681 
L 216.50844 291.369659 
L 217.046839 291.744053 
L 217.585237 291.731845 
L 218.123636 291.60569 
L 220.277232 292.142865 
L 221.35403 292.224255 
L 221.892429 292.4318 
L 222.430828 292.427731 
L 222.969227 292.549816 
L 223.507626 292.509121 
L 224.046024 292.838751 
L 224.584423 292.834681 
L 225.122822 293.066643 
L 225.661221 292.822473 
L 226.19962 293.17245 
L 227.276418 293.196867 
L 227.814817 293.363717 
L 228.353216 293.302675 
L 229.430014 293.461385 
L 229.968412 293.375926 
L 230.506811 293.595679 
L 231.04521 293.50208 
L 231.583609 293.709625 
L 232.660407 293.664861 
L 233.198806 293.83985 
L 236.429199 294.149132 
L 236.967598 293.953796 
L 238.044396 294.344468 
L 238.582795 294.242731 
L 240.736391 294.397372 
L 241.27479 294.307843 
L 241.813189 294.474693 
L 242.351588 294.486901 
L 242.889986 294.372955 
L 243.966784 294.535735 
L 246.658779 294.690377 
L 247.197178 294.645612 
L 247.735577 294.82874 
L 248.273976 294.727002 
L 250.427571 294.926408 
L 250.96597 294.849087 
L 251.504369 294.918269 
L 252.581167 294.90606 
L 253.657965 294.963034 
L 254.196364 294.90606 
L 255.81156 295.07698 
L 256.888358 294.983381 
L 257.965156 295.117675 
L 259.580353 295.085119 
L 287.038697 295.394401 
L 290.269091 295.410679 
L 291.884288 295.414749 
L 292.961085 295.431027 
L 298.345075 295.443235 
L 398.487273 295.48393 
L 398.487273 295.48393 
" clip-path="url(#p615aae9b54)" style="fill: none; stroke: #1f77b4; stroke-width: 1.5; stroke-linecap: square"/>
   </g>
   <g id="patch_3">
    <path d="M 57.6 307.584 
L 57.6 41.472 
" style="fill: none; stroke: #000000; stroke-width: 0.8; stroke-linejoin: miter; stroke-linecap: square"/>
   </g>
   <g id="patch_4">
    <path d="M 414.72 307.584 
L 414.72 41.472 
" style="fill: none; stroke: #000000; stroke-width: 0.8; stroke-linejoin: miter; stroke-linecap: square"/>
   </g>
   <g id="patch_5">
    <path d="M 57.6 307.584 
L 414.72 307.584 
" style="fill: none; stroke: #000000; stroke-width: 0.8; stroke-linejoin: miter; stroke-linecap: square"/>
   </g>
   <g id="patch_6">
    <path d="M 57.6 41.472 
L 414.72 41.472 
" style="fill: none; stroke: #000000; stroke-width: 0.8; stroke-linejoin: miter; stroke-linecap: square"/>
   </g>
  </g>
 </g>
 <defs>
  <clipPath id="p615aae9b54">
   <rect x="57.6" y="41.472" width="357.12" height="266.112"/>
  </clipPath>
 </defs>
</svg>
