<?xml version="1.0" encoding="utf-8" standalone="no"?>
<!DOCTYPE svg PUBLIC "-//W3C//DTD SVG 1.1//EN"
  "http://www.w3.org/Graphics/SVG/1.1/DTD/svg11.dtd">
<svg xmlns:xlink="http://www.w3.org/1999/xlink" width="460.8pt" height="345.6pt" viewBox="0 0 460.8 345.6" xmlns="http://www.w3.org/2000/svg" version="1.1">
 <metadata>
  <rdf:RDF xmlns:dc="http://purl.org/dc/elements/1.1/" xmlns:cc="http://creativecommons.org/ns#" xmlns:rdf="http://www.w3.org/1999/02/22-rdf-syntax-ns#">
   <cc:Work>
    <dc:type rdf:resource="http://purl.org/dc/dcmitype/StillImage"/>
    <dc:date>2022-09-11T00:33:26.678482</dc:date>
    <dc:format>image/svg+xml</dc:format>
    <dc:creator>
     <cc:Agent>
      <dc:title>Matplotlib v3.5.2, https://matplotlib.org/</dc:title>
     </cc:Agent>
    </dc:creator>
   </cc:Work>
  </rdf:RDF>
 </metadata>
 <defs>
  <style type="text/css">*{stroke-linejoin: round; stroke-linecap: butt}</style>
 </defs>
 <g id="figure_1">
  <g id="patch_1">
   <path d="M 0 345.6 
L 460.8 345.6 
L 460.8 0 
L 0 0 
z
" style="fill: #ffffff"/>
  </g>
  <g id="axes_1">
   <g id="patch_2">
    <path d="M 57.6 307.584 
L 414.72 307.584 
L 414.72 41.472 
L 57.6 41.472 
z
" style="fill: #ffffff"/>
   </g>
   <g id="matplotlib.axis_1">
    <g id="xtick_1">
     <g id="line2d_1">
      <defs>
       <path id="m067ba5b7dc" d="M 0 0 
L 0 3.5 
" style="stroke: #000000; stroke-width: 0.8"/>
      </defs>
      <g>
       <use xlink:href="#m067ba5b7dc" x="73.832727" y="307.584" style="stroke: #000000; stroke-width: 0.8"/>
      </g>
     </g>
     <g id="text_1">
      <!-- 0 -->
      <g transform="translate(70.651477 322.182437)scale(0.1 -0.1)">
       <defs>
        <path id="DejaVuSans-30" d="M 2034 4250 
Q 1547 4250 1301 3770 
Q 1056 3291 1056 2328 
Q 1056 1369 1301 889 
Q 1547 409 2034 409 
Q 2525 409 2770 889 
Q 3016 1369 3016 2328 
Q 3016 3291 2770 3770 
Q 2525 4250 2034 4250 
z
M 2034 4750 
Q 2819 4750 3233 4129 
Q 3647 3509 3647 2328 
Q 3647 1150 3233 529 
Q 2819 -91 2034 -91 
Q 1250 -91 836 529 
Q 422 1150 422 2328 
Q 422 3509 836 4129 
Q 1250 4750 2034 4750 
z
" transform="scale(0.015625)"/>
       </defs>
       <use xlink:href="#DejaVuSans-30"/>
      </g>
     </g>
    </g>
    <g id="xtick_2">
     <g id="line2d_2">
      <g>
       <use xlink:href="#m067ba5b7dc" x="127.672619" y="307.584" style="stroke: #000000; stroke-width: 0.8"/>
      </g>
     </g>
     <g id="text_2">
      <!-- 100 -->
      <g transform="translate(118.128869 322.182437)scale(0.1 -0.1)">
       <defs>
        <path id="DejaVuSans-31" d="M 794 531 
L 1825 531 
L 1825 4091 
L 703 3866 
L 703 4441 
L 1819 4666 
L 2450 4666 
L 2450 531 
L 3481 531 
L 3481 0 
L 794 0 
L 794 531 
z
" transform="scale(0.015625)"/>
       </defs>
       <use xlink:href="#DejaVuSans-31"/>
       <use xlink:href="#DejaVuSans-30" x="63.623047"/>
       <use xlink:href="#DejaVuSans-30" x="127.246094"/>
      </g>
     </g>
    </g>
    <g id="xtick_3">
     <g id="line2d_3">
      <g>
       <use xlink:href="#m067ba5b7dc" x="181.51251" y="307.584" style="stroke: #000000; stroke-width: 0.8"/>
      </g>
     </g>
     <g id="text_3">
      <!-- 200 -->
      <g transform="translate(171.96876 322.182437)scale(0.1 -0.1)">
       <defs>
        <path id="DejaVuSans-32" d="M 1228 531 
L 3431 531 
L 3431 0 
L 469 0 
L 469 531 
Q 828 903 1448 1529 
Q 2069 2156 2228 2338 
Q 2531 2678 2651 2914 
Q 2772 3150 2772 3378 
Q 2772 3750 2511 3984 
Q 2250 4219 1831 4219 
Q 1534 4219 1204 4116 
Q 875 4013 500 3803 
L 500 4441 
Q 881 4594 1212 4672 
Q 1544 4750 1819 4750 
Q 2544 4750 2975 4387 
Q 3406 4025 3406 3419 
Q 3406 3131 3298 2873 
Q 3191 2616 2906 2266 
Q 2828 2175 2409 1742 
Q 1991 1309 1228 531 
z
" transform="scale(0.015625)"/>
       </defs>
       <use xlink:href="#DejaVuSans-32"/>
       <use xlink:href="#DejaVuSans-30" x="63.623047"/>
       <use xlink:href="#DejaVuSans-30" x="127.246094"/>
      </g>
     </g>
    </g>
    <g id="xtick_4">
     <g id="line2d_4">
      <g>
       <use xlink:href="#m067ba5b7dc" x="235.352402" y="307.584" style="stroke: #000000; stroke-width: 0.8"/>
      </g>
     </g>
     <g id="text_4">
      <!-- 300 -->
      <g transform="translate(225.808652 322.182437)scale(0.1 -0.1)">
       <defs>
        <path id="DejaVuSans-33" d="M 2597 2516 
Q 3050 2419 3304 2112 
Q 3559 1806 3559 1356 
Q 3559 666 3084 287 
Q 2609 -91 1734 -91 
Q 1441 -91 1130 -33 
Q 819 25 488 141 
L 488 750 
Q 750 597 1062 519 
Q 1375 441 1716 441 
Q 2309 441 2620 675 
Q 2931 909 2931 1356 
Q 2931 1769 2642 2001 
Q 2353 2234 1838 2234 
L 1294 2234 
L 1294 2753 
L 1863 2753 
Q 2328 2753 2575 2939 
Q 2822 3125 2822 3475 
Q 2822 3834 2567 4026 
Q 2313 4219 1838 4219 
Q 1578 4219 1281 4162 
Q 984 4106 628 3988 
L 628 4550 
Q 988 4650 1302 4700 
Q 1616 4750 1894 4750 
Q 2613 4750 3031 4423 
Q 3450 4097 3450 3541 
Q 3450 3153 3228 2886 
Q 3006 2619 2597 2516 
z
" transform="scale(0.015625)"/>
       </defs>
       <use xlink:href="#DejaVuSans-33"/>
       <use xlink:href="#DejaVuSans-30" x="63.623047"/>
       <use xlink:href="#DejaVuSans-30" x="127.246094"/>
      </g>
     </g>
    </g>
    <g id="xtick_5">
     <g id="line2d_5">
      <g>
       <use xlink:href="#m067ba5b7dc" x="289.192293" y="307.584" style="stroke: #000000; stroke-width: 0.8"/>
      </g>
     </g>
     <g id="text_5">
      <!-- 400 -->
      <g transform="translate(279.648543 322.182437)scale(0.1 -0.1)">
       <defs>
        <path id="DejaVuSans-34" d="M 2419 4116 
L 825 1625 
L 2419 1625 
L 2419 4116 
z
M 2253 4666 
L 3047 4666 
L 3047 1625 
L 3713 1625 
L 3713 1100 
L 3047 1100 
L 3047 0 
L 2419 0 
L 2419 1100 
L 313 1100 
L 313 1709 
L 2253 4666 
z
" transform="scale(0.015625)"/>
       </defs>
       <use xlink:href="#DejaVuSans-34"/>
       <use xlink:href="#DejaVuSans-30" x="63.623047"/>
       <use xlink:href="#DejaVuSans-30" x="127.246094"/>
      </g>
     </g>
    </g>
    <g id="xtick_6">
     <g id="line2d_6">
      <g>
       <use xlink:href="#m067ba5b7dc" x="343.032185" y="307.584" style="stroke: #000000; stroke-width: 0.8"/>
      </g>
     </g>
     <g id="text_6">
      <!-- 500 -->
      <g transform="translate(333.488435 322.182437)scale(0.1 -0.1)">
       <defs>
        <path id="DejaVuSans-35" d="M 691 4666 
L 3169 4666 
L 3169 4134 
L 1269 4134 
L 1269 2991 
Q 1406 3038 1543 3061 
Q 1681 3084 1819 3084 
Q 2600 3084 3056 2656 
Q 3513 2228 3513 1497 
Q 3513 744 3044 326 
Q 2575 -91 1722 -91 
Q 1428 -91 1123 -41 
Q 819 9 494 109 
L 494 744 
Q 775 591 1075 516 
Q 1375 441 1709 441 
Q 2250 441 2565 725 
Q 2881 1009 2881 1497 
Q 2881 1984 2565 2268 
Q 2250 2553 1709 2553 
Q 1456 2553 1204 2497 
Q 953 2441 691 2322 
L 691 4666 
z
" transform="scale(0.015625)"/>
       </defs>
       <use xlink:href="#DejaVuSans-35"/>
       <use xlink:href="#DejaVuSans-30" x="63.623047"/>
       <use xlink:href="#DejaVuSans-30" x="127.246094"/>
      </g>
     </g>
    </g>
    <g id="xtick_7">
     <g id="line2d_7">
      <g>
       <use xlink:href="#m067ba5b7dc" x="396.872076" y="307.584" style="stroke: #000000; stroke-width: 0.8"/>
      </g>
     </g>
     <g id="text_7">
      <!-- 600 -->
      <g transform="translate(387.328326 322.182437)scale(0.1 -0.1)">
       <defs>
        <path id="DejaVuSans-36" d="M 2113 2584 
Q 1688 2584 1439 2293 
Q 1191 2003 1191 1497 
Q 1191 994 1439 701 
Q 1688 409 2113 409 
Q 2538 409 2786 701 
Q 3034 994 3034 1497 
Q 3034 2003 2786 2293 
Q 2538 2584 2113 2584 
z
M 3366 4563 
L 3366 3988 
Q 3128 4100 2886 4159 
Q 2644 4219 2406 4219 
Q 1781 4219 1451 3797 
Q 1122 3375 1075 2522 
Q 1259 2794 1537 2939 
Q 1816 3084 2150 3084 
Q 2853 3084 3261 2657 
Q 3669 2231 3669 1497 
Q 3669 778 3244 343 
Q 2819 -91 2113 -91 
Q 1303 -91 875 529 
Q 447 1150 447 2328 
Q 447 3434 972 4092 
Q 1497 4750 2381 4750 
Q 2619 4750 2861 4703 
Q 3103 4656 3366 4563 
z
" transform="scale(0.015625)"/>
       </defs>
       <use xlink:href="#DejaVuSans-36"/>
       <use xlink:href="#DejaVuSans-30" x="63.623047"/>
       <use xlink:href="#DejaVuSans-30" x="127.246094"/>
      </g>
     </g>
    </g>
   </g>
   <g id="matplotlib.axis_2">
    <g id="ytick_1">
     <g id="line2d_8">
      <defs>
       <path id="m6d53096f14" d="M 0 0 
L -3.5 0 
" style="stroke: #000000; stroke-width: 0.8"/>
      </defs>
      <g>
       <use xlink:href="#m6d53096f14" x="57.6" y="295.488" style="stroke: #000000; stroke-width: 0.8"/>
      </g>
     </g>
     <g id="text_8">
      <!-- 0.000 -->
      <g transform="translate(21.971875 299.287219)scale(0.1 -0.1)">
       <defs>
        <path id="DejaVuSans-2e" d="M 684 794 
L 1344 794 
L 1344 0 
L 684 0 
L 684 794 
z
" transform="scale(0.015625)"/>
       </defs>
       <use xlink:href="#DejaVuSans-30"/>
       <use xlink:href="#DejaVuSans-2e" x="63.623047"/>
       <use xlink:href="#DejaVuSans-30" x="95.410156"/>
       <use xlink:href="#DejaVuSans-30" x="159.033203"/>
       <use xlink:href="#DejaVuSans-30" x="222.65625"/>
      </g>
     </g>
    </g>
    <g id="ytick_2">
     <g id="line2d_9">
      <g>
       <use xlink:href="#m6d53096f14" x="57.6" y="258.843449" style="stroke: #000000; stroke-width: 0.8"/>
      </g>
     </g>
     <g id="text_9">
      <!-- 0.002 -->
      <g transform="translate(21.971875 262.642667)scale(0.1 -0.1)">
       <use xlink:href="#DejaVuSans-30"/>
       <use xlink:href="#DejaVuSans-2e" x="63.623047"/>
       <use xlink:href="#DejaVuSans-30" x="95.410156"/>
       <use xlink:href="#DejaVuSans-30" x="159.033203"/>
       <use xlink:href="#DejaVuSans-32" x="222.65625"/>
      </g>
     </g>
    </g>
    <g id="ytick_3">
     <g id="line2d_10">
      <g>
       <use xlink:href="#m6d53096f14" x="57.6" y="222.198897" style="stroke: #000000; stroke-width: 0.8"/>
      </g>
     </g>
     <g id="text_10">
      <!-- 0.004 -->
      <g transform="translate(21.971875 225.998116)scale(0.1 -0.1)">
       <use xlink:href="#DejaVuSans-30"/>
       <use xlink:href="#DejaVuSans-2e" x="63.623047"/>
       <use xlink:href="#DejaVuSans-30" x="95.410156"/>
       <use xlink:href="#DejaVuSans-30" x="159.033203"/>
       <use xlink:href="#DejaVuSans-34" x="222.65625"/>
      </g>
     </g>
    </g>
    <g id="ytick_4">
     <g id="line2d_11">
      <g>
       <use xlink:href="#m6d53096f14" x="57.6" y="185.554346" style="stroke: #000000; stroke-width: 0.8"/>
      </g>
     </g>
     <g id="text_11">
      <!-- 0.006 -->
      <g transform="translate(21.971875 189.353564)scale(0.1 -0.1)">
       <use xlink:href="#DejaVuSans-30"/>
       <use xlink:href="#DejaVuSans-2e" x="63.623047"/>
       <use xlink:href="#DejaVuSans-30" x="95.410156"/>
       <use xlink:href="#DejaVuSans-30" x="159.033203"/>
       <use xlink:href="#DejaVuSans-36" x="222.65625"/>
      </g>
     </g>
    </g>
    <g id="ytick_5">
     <g id="line2d_12">
      <g>
       <use xlink:href="#m6d53096f14" x="57.6" y="148.909794" style="stroke: #000000; stroke-width: 0.8"/>
      </g>
     </g>
     <g id="text_12">
      <!-- 0.008 -->
      <g transform="translate(21.971875 152.709013)scale(0.1 -0.1)">
       <defs>
        <path id="DejaVuSans-38" d="M 2034 2216 
Q 1584 2216 1326 1975 
Q 1069 1734 1069 1313 
Q 1069 891 1326 650 
Q 1584 409 2034 409 
Q 2484 409 2743 651 
Q 3003 894 3003 1313 
Q 3003 1734 2745 1975 
Q 2488 2216 2034 2216 
z
M 1403 2484 
Q 997 2584 770 2862 
Q 544 3141 544 3541 
Q 544 4100 942 4425 
Q 1341 4750 2034 4750 
Q 2731 4750 3128 4425 
Q 3525 4100 3525 3541 
Q 3525 3141 3298 2862 
Q 3072 2584 2669 2484 
Q 3125 2378 3379 2068 
Q 3634 1759 3634 1313 
Q 3634 634 3220 271 
Q 2806 -91 2034 -91 
Q 1263 -91 848 271 
Q 434 634 434 1313 
Q 434 1759 690 2068 
Q 947 2378 1403 2484 
z
M 1172 3481 
Q 1172 3119 1398 2916 
Q 1625 2713 2034 2713 
Q 2441 2713 2670 2916 
Q 2900 3119 2900 3481 
Q 2900 3844 2670 4047 
Q 2441 4250 2034 4250 
Q 1625 4250 1398 4047 
Q 1172 3844 1172 3481 
z
" transform="scale(0.015625)"/>
       </defs>
       <use xlink:href="#DejaVuSans-30"/>
       <use xlink:href="#DejaVuSans-2e" x="63.623047"/>
       <use xlink:href="#DejaVuSans-30" x="95.410156"/>
       <use xlink:href="#DejaVuSans-30" x="159.033203"/>
       <use xlink:href="#DejaVuSans-38" x="222.65625"/>
      </g>
     </g>
    </g>
    <g id="ytick_6">
     <g id="line2d_13">
      <g>
       <use xlink:href="#m6d53096f14" x="57.6" y="112.265243" style="stroke: #000000; stroke-width: 0.8"/>
      </g>
     </g>
     <g id="text_13">
      <!-- 0.010 -->
      <g transform="translate(21.971875 116.064461)scale(0.1 -0.1)">
       <use xlink:href="#DejaVuSans-30"/>
       <use xlink:href="#DejaVuSans-2e" x="63.623047"/>
       <use xlink:href="#DejaVuSans-30" x="95.410156"/>
       <use xlink:href="#DejaVuSans-31" x="159.033203"/>
       <use xlink:href="#DejaVuSans-30" x="222.65625"/>
      </g>
     </g>
    </g>
    <g id="ytick_7">
     <g id="line2d_14">
      <g>
       <use xlink:href="#m6d53096f14" x="57.6" y="75.620691" style="stroke: #000000; stroke-width: 0.8"/>
      </g>
     </g>
     <g id="text_14">
      <!-- 0.012 -->
      <g transform="translate(21.971875 79.41991)scale(0.1 -0.1)">
       <use xlink:href="#DejaVuSans-30"/>
       <use xlink:href="#DejaVuSans-2e" x="63.623047"/>
       <use xlink:href="#DejaVuSans-30" x="95.410156"/>
       <use xlink:href="#DejaVuSans-31" x="159.033203"/>
       <use xlink:href="#DejaVuSans-32" x="222.65625"/>
      </g>
     </g>
    </g>
   </g>
   <g id="line2d_15">
    <path d="M 73.832727 295.488 
L 75.447924 295.418375 
L 75.986323 295.319435 
L 77.063121 294.810076 
L 78.678318 293.659437 
L 79.755115 292.779968 
L 81.908711 286.715294 
L 82.44711 285.044303 
L 83.523908 280.844837 
L 84.062307 279.082234 
L 84.600706 276.623385 
L 85.139104 272.083125 
L 86.215902 265.725295 
L 86.754301 262.09382 
L 87.2927 259.569011 
L 88.907897 248.586639 
L 89.446296 245.292293 
L 89.984695 238.439762 
L 90.523094 235.372613 
L 91.599891 227.428075 
L 92.13829 224.709049 
L 92.676689 218.860578 
L 93.215088 216.291795 
L 94.291886 207.878206 
L 94.830285 204.085495 
L 95.368684 197.947533 
L 95.907083 195.818484 
L 96.445482 191.091337 
L 96.983881 187.701716 
L 97.52228 182.857307 
L 98.060678 179.398061 
L 98.599077 176.774311 
L 100.214274 166.191365 
L 100.752673 207.885535 
L 101.291072 176.854929 
L 101.829471 172.332991 
L 102.36787 171.226326 
L 103.444668 167.26505 
L 103.983066 162.490265 
L 105.059864 159.456096 
L 105.598263 156.806695 
L 106.136662 53.568 
L 106.675061 143.442427 
L 107.21346 141.445299 
L 108.290258 139.89157 
L 108.828657 137.20186 
L 109.367056 136.15749 
L 109.905455 134.208 
L 110.443853 133.885528 
L 110.982252 130.997937 
L 111.520651 95.053297 
L 112.05905 127.949111 
L 112.597449 126.952379 
L 113.135848 127.069641 
L 113.674247 125.142138 
L 114.212646 127.399442 
L 114.751045 125.625846 
L 115.289444 126.102225 
L 115.827843 125.798075 
L 116.366242 126.571275 
L 116.90464 112.825904 
L 117.443039 126.824123 
L 117.981438 125.666155 
L 118.519837 127.333482 
L 119.058236 127.688934 
L 119.596635 128.59039 
L 120.135034 128.55741 
L 120.673433 130.701116 
L 121.211832 131.646546 
L 121.750231 132.130254 
L 122.28863 128.799264 
L 122.827028 132.877803 
L 123.365427 135.549191 
L 123.903826 135.72142 
L 124.442225 137.652588 
L 124.980624 137.451043 
L 125.519023 139.726669 
L 126.057422 140.840664 
L 126.595821 143.383796 
L 127.13422 144.39885 
L 127.672619 144.472139 
L 128.211018 146.036861 
L 128.749417 148.638624 
L 129.287815 149.485114 
L 129.826214 151.555531 
L 130.364613 154.45045 
L 130.903012 154.666653 
L 131.441411 157.404001 
L 131.97981 158.536318 
L 132.518209 159.217906 
L 133.056608 161.947925 
L 134.133406 165.583065 
L 134.671805 166.876618 
L 135.210204 169.877806 
L 136.287001 172.14244 
L 136.8254 175.455107 
L 137.363799 175.161951 
L 137.902198 178.397665 
L 138.978996 180.797883 
L 139.517395 183.930992 
L 140.055794 185.202558 
L 141.132592 189.500964 
L 141.670991 191.366171 
L 142.209389 192.381225 
L 142.747788 194.239104 
L 143.286187 197.027755 
L 143.824586 198.178394 
L 144.362985 201.223556 
L 144.901384 201.337154 
L 145.978182 205.049247 
L 146.516581 206.26951 
L 148.670176 213.440849 
L 149.208575 214.155418 
L 149.746974 215.089854 
L 150.285373 218.387864 
L 151.362171 220.472939 
L 151.90057 223.184635 
L 152.438969 223.635363 
L 153.515767 227.878803 
L 154.054166 227.941098 
L 154.592564 229.252973 
L 155.130963 231.29041 
L 155.669362 232.70489 
L 156.207761 232.206524 
L 156.74616 235.042812 
L 157.284559 236.589212 
L 158.361357 238.527709 
L 158.899756 240.473535 
L 159.438155 241.488589 
L 159.976554 242.943378 
L 161.053351 244.892868 
L 161.59175 245.673397 
L 162.130149 247.604565 
L 163.206947 248.813835 
L 163.745346 250.972199 
L 164.283745 251.822352 
L 164.822144 252.078864 
L 165.360543 253.18553 
L 165.898942 254.032019 
L 166.437341 255.560097 
L 166.975739 256.087778 
L 168.052537 258.400049 
L 169.129335 259.316163 
L 170.744532 262.350332 
L 171.282931 262.49691 
L 172.359729 264.428078 
L 172.898128 265.586046 
L 173.436526 265.593375 
L 173.974925 266.985868 
L 174.513324 267.883659 
L 175.051723 268.356374 
L 175.590122 268.458979 
L 176.128521 269.730545 
L 176.66692 269.686571 
L 177.205319 270.873855 
L 177.743718 271.265951 
L 178.282117 272.662109 
L 178.820516 272.376281 
L 179.358915 273.116501 
L 179.897313 273.197119 
L 180.435712 274.325772 
L 180.974111 274.904755 
L 182.050909 276.315571 
L 182.589308 276.744312 
L 183.127707 277.323296 
L 183.666106 277.037468 
L 184.204505 278.385988 
L 184.742904 277.8693 
L 185.819701 279.434022 
L 186.3581 279.800468 
L 186.896499 279.562278 
L 187.434898 280.038657 
L 187.973297 281.438479 
L 188.511696 281.427486 
L 189.050095 281.991812 
L 189.588494 282.219008 
L 190.126893 282.167706 
L 191.203691 283.472252 
L 191.74209 283.560198 
L 192.280488 283.523554 
L 192.818887 283.820375 
L 193.357286 284.45799 
L 193.895685 284.641213 
L 194.434084 285.058961 
L 194.972483 284.989336 
L 196.58768 286.227922 
L 197.126079 286.169291 
L 197.664478 286.656663 
L 198.202877 286.561387 
L 198.741275 286.942491 
L 199.279674 287.177016 
L 199.818073 287.235647 
L 200.356472 287.455514 
L 200.894871 288.052821 
L 201.971669 288.452246 
L 202.510068 288.826021 
L 203.048467 288.763725 
L 203.586866 289.100855 
L 204.125265 288.891981 
L 204.663664 289.522267 
L 205.202062 289.492951 
L 205.740461 289.298735 
L 206.27886 289.877719 
L 206.817259 290.185533 
L 207.894057 290.218513 
L 208.432456 290.475025 
L 208.970855 290.416394 
L 209.509254 290.775511 
L 210.047653 290.922089 
L 210.586052 290.859793 
L 211.662849 291.237232 
L 212.201248 291.248225 
L 212.739647 291.508402 
L 214.354844 291.665973 
L 214.893243 291.933479 
L 216.50844 292.248622 
L 217.046839 292.483147 
L 218.662035 292.516127 
L 219.200434 292.794625 
L 221.35403 292.893566 
L 221.892429 293.139084 
L 222.430828 293.06946 
L 225.122822 293.619128 
L 225.661221 293.351623 
L 226.19962 293.710739 
L 227.276418 293.776699 
L 227.814817 293.849989 
L 228.353216 293.769371 
L 229.430014 293.90862 
L 229.968412 293.84266 
L 230.506811 294.058862 
L 231.04521 293.934271 
L 231.583609 294.128487 
L 234.275604 294.253079 
L 236.429199 294.454624 
L 236.967598 294.282394 
L 238.044396 294.586544 
L 239.659593 294.480275 
L 240.197992 294.634182 
L 242.351588 294.703807 
L 242.889986 294.586544 
L 243.966784 294.751445 
L 253.657965 295.092239 
L 254.196364 295.011621 
L 255.273161 295.092239 
L 255.81156 295.18385 
L 256.888358 295.088574 
L 257.965156 295.231488 
L 259.041954 295.172857 
L 266.579539 295.330428 
L 268.194735 295.312106 
L 269.271533 295.345086 
L 274.655522 295.363409 
L 278.424315 295.385395 
L 282.731506 295.411046 
L 285.9619 295.414711 
L 288.115495 295.418375 
L 398.487273 295.484336 
L 398.487273 295.484336 
" clip-path="url(#p01aa6aaa23)" style="fill: none; stroke: #1f77b4; stroke-width: 1.5; stroke-linecap: square"/>
   </g>
   <g id="patch_3">
    <path d="M 57.6 307.584 
L 57.6 41.472 
" style="fill: none; stroke: #000000; stroke-width: 0.8; stroke-linejoin: miter; stroke-linecap: square"/>
   </g>
   <g id="patch_4">
    <path d="M 414.72 307.584 
L 414.72 41.472 
" style="fill: none; stroke: #000000; stroke-width: 0.8; stroke-linejoin: miter; stroke-linecap: square"/>
   </g>
   <g id="patch_5">
    <path d="M 57.6 307.584 
L 414.72 307.584 
" style="fill: none; stroke: #000000; stroke-width: 0.8; stroke-linejoin: miter; stroke-linecap: square"/>
   </g>
   <g id="patch_6">
    <path d="M 57.6 41.472 
L 414.72 41.472 
" style="fill: none; stroke: #000000; stroke-width: 0.8; stroke-linejoin: miter; stroke-linecap: square"/>
   </g>
  </g>
 </g>
 <defs>
  <clipPath id="p01aa6aaa23">
   <rect x="57.6" y="41.472" width="357.12" height="266.112"/>
  </clipPath>
 </defs>
</svg>
